<svg xmlns="http://www.w3.org/2000/svg" aria-hidden="true" style="position:absolute;width:0;height:0;overflow:hidden"><defs><symbol id="icon-close-cross" viewBox="0 0 32 32"><path stroke-width="2" d="m2.519 2 26.963 28M2 29.481 30 2.518"/></symbol><symbol id="icon-menu-burger" viewBox="0 0 46 32"><path stroke-width="2.286" d="M0 2.286h45.714M0 16h45.714M0 29.714h45.714"/></symbol><symbol id="icon-slider-dots" viewBox="0 0 195 32"><path d="M114.667 16c0 8.837-7.163 16-16 16s-16-7.163-16-16 7.163-16 16-16 16 7.163 16 16zM34.253 15.613a1.576 1.576 0 0 0-.129-2.255L19.352.432c-.671-.586-1.745-.574-2.402.028L2.128 14.047a1.567 1.567 0 0 0-.071 2.252l.372.387c.617.642 1.613.718 2.224.17l1.108-.992v14.523c0 .891.722 1.613 1.612 1.613h5.778c.89 0 1.612-.721 1.612-1.613v-10.16h7.37v10.16c-.013.89.624 1.612 1.515 1.612h6.123c.89 0 1.613-.722 1.613-1.613V16.068l.683.6c.377.332 1.168.066 1.767-.594l.42-.462zM194.667 16c0 8.837-7.163 16-16 16s-16-7.163-16-16 7.163-16 16-16 16 7.163 16 16z"/></symbol><symbol id="icon-three-dots" viewBox="0 0 256 32"><path d="M144 16c0 8.837-7.163 16-16 16s-16-7.163-16-16 7.163-16 16-16 16 7.163 16 16zM32 16c0 8.837-7.163 16-16 16S0 24.837 0 16 7.163 0 16 0s16 7.163 16 16zM256 16c0 8.837-7.163 16-16 16s-16-7.163-16-16 7.163-16 16-16 16 7.163 16 16z"/></symbol><symbol id="icon-lolipop" viewBox="0 0 28 32"><path d="M0 0h28.16v32H0V0z"/></symbol><symbol id="icon-apples" viewBox="0 0 32 32"><path d="M0 0h32v32H0V0z"/></symbol><symbol id="icon-cow-tits" viewBox="0 0 21 32"><path d="M0 0h21.12v32H0V0z"/></symbol><symbol id="icon-circle-arrow-right" viewBox="0 0 32 32"><path d="M0 0h32v32H0V0z"/></symbol><symbol id="icon-circle" viewBox="0 0 32 32"><path d="M32 16c0 8.837-7.163 16-16 16S0 24.837 0 16 7.163 0 16 0s16 7.163 16 16z"/></symbol><symbol id="icon-button-arrow" viewBox="0 0 19 32"><path stroke-linecap="round" stroke-linejoin="round" stroke-width="6.4" d="M3.2 3.2 16 16 3.2 28.8"/></symbol><symbol id="icon-facebook" viewBox="0 0 16 32"><path d="M14.266 15.97H10.09v15.39H3.763V15.97H.754v-5.409h3.009v-3.5c0-2.503 1.182-6.422 6.384-6.422l4.687.02v5.25h-3.401c-.558 0-1.342.28-1.342 1.474v3.183h4.729l-.553 5.403z"/></symbol><symbol id="icon-telegram" viewBox="0 0 40 32"><path d="m16.205 20.751-.635 8.339c.909 0 1.302-.364 1.774-.802l4.261-3.801 8.829 6.035c1.619.842 2.76.399 3.197-1.39l5.797-25.346c.514-2.234-.866-3.108-2.443-2.56L2.92 13.398c-2.325.842-2.29 2.052-.395 2.6l8.709 2.528L31.463 6.712c.952-.588 1.818-.263 1.106.326L16.205 20.751z"/></symbol><symbol id="icon-github" viewBox="0 0 32 32"><path d="M16 .941C7.729.941.941 7.729.941 16c0 7.058 4.953 13.47 11.529 15.059v-4.982c-.652.143-1.251.147-1.915-.049-.89-.263-1.613-.856-2.15-1.76-.342-.577-.949-1.203-1.581-1.157l-.155-1.758c1.368-.117 2.551.833 3.254 2.013.312.525.671.832 1.132.969.446.131.924.068 1.481-.129.14-1.116.651-1.534 1.037-2.122v-.001c-3.922-.585-5.486-2.666-6.106-4.308-.822-2.181-.381-4.905 1.073-6.627.028-.034.079-.121.06-.183-.667-2.014.146-3.679.176-3.856.769.228.894-.229 3.342 1.258l.423.254c.177.105.121.045.298.032a12.77 12.77 0 0 1 3.16-.445 12.84 12.84 0 0 1 3.204.456l.137.014c-.012-.002.037-.009.12-.058 3.057-1.852 2.947-1.247 3.767-1.513.03.177.831 1.87.172 3.858-.089.274 2.65 2.782 1.132 6.809-.62 1.643-2.184 3.724-6.106 4.309v.001c.503.766 1.107 1.174 1.104 2.755v6.219c6.577-1.589 11.529-8.001 11.529-15.059C31.058 7.728 24.271.94 15.999.94z"/></symbol></defs></svg>